<?xml version="1.0" standalone="no"?>
<!DOCTYPE svg PUBLIC "-//W3C//DTD SVG 20010904//EN"
 "http://www.w3.org/TR/2001/REC-SVG-20010904/DTD/svg10.dtd">
<svg version="1.0" xmlns="http://www.w3.org/2000/svg"
 width="528.000000pt" height="619.000000pt" viewBox="0 0 528.000000 619.000000"
 preserveAspectRatio="xMidYMid meet">

<g transform="translate(0.000000,619.000000) scale(0.100000,-0.100000)"
fill="#000000" stroke="none">
<path d="M1502 6037 c-46 -97 -121 -160 -227 -192 l-40 -12 -3 -291 -2 -291
42 -11 c109 -29 195 -104 239 -205 l24 -55 1077 0 1077 0 27 60 c17 37 46 77
78 108 59 56 93 76 159 93 l47 11 0 294 c0 285 -1 294 -20 294 -39 0 -129 42
-172 80 -26 23 -61 69 -82 110 l-37 70 -1079 0 -1079 -1 -29 -62z m2146 -100
c38 -67 108 -130 184 -165 l58 -27 0 -206 0 -206 -38 -11 c-67 -20 -143 -84
-192 -160 l-45 -71 -1002 0 -1003 -1 -21 43 c-33 65 -139 162 -198 184 l-51
18 0 206 0 206 65 32 c76 38 152 109 179 169 l19 42 1008 0 1007 0 30 -53z"/>
<path d="M1617 5865 c-35 -55 -96 -108 -161 -142 -47 -24 -48 -25 -42 -61 3
-20 6 -92 6 -159 l0 -121 53 -30 c55 -31 161 -137 172 -172 6 -20 11 -20 965
-20 l959 0 35 54 c39 61 107 121 169 151 l42 20 1 125 c1 184 0 191 -47 213
-48 23 -141 106 -169 153 l-22 34 -966 0 -967 0 -28 -45z"/>
<path d="M1860 4606 l0 -273 378 -6 c207 -3 472 -4 587 -2 116 2 283 4 373 4
l162 1 0 275 0 275 -750 0 -750 0 0 -274z"/>
<path d="M1344 4311 c76 -149 245 -366 366 -468 131 -112 216 -140 288 -98 26
16 362 394 362 408 0 3 -37 10 -82 16 -115 17 -350 62 -563 110 -160 35 -380
81 -391 81 -2 0 7 -22 20 -49z"/>
<path d="M3650 4310 c-268 -64 -461 -104 -640 -130 -80 -12 -146 -23 -148 -25
-2 -2 38 -52 90 -112 51 -60 122 -143 157 -186 77 -94 118 -121 180 -121 150
1 407 247 571 547 41 75 41 77 18 76 -12 0 -115 -22 -228 -49z"/>
<path d="M2496 4220 c-49 -21 -93 -43 -98 -48 -8 -8 84 -165 120 -206 20 -22
85 -56 107 -56 28 0 103 80 160 170 30 48 55 89 55 92 0 10 -208 88 -231 87
-13 0 -64 -18 -113 -39z"/>
<path d="M430 4142 c-220 -58 -376 -271 -356 -487 4 -38 25 -236 46 -440 22
-203 56 -525 75 -715 143 -1385 210 -1987 226 -2045 45 -165 219 -324 388
-355 34 -6 679 -10 1800 -10 1897 0 1817 -2 1934 55 118 58 220 179 257 305
18 60 54 372 135 1175 39 381 99 942 166 1542 58 529 59 543 45 613 -8 39 -28
94 -43 122 -38 71 -125 156 -199 195 -111 59 -146 63 -591 63 l-401 0 -35 -47
c-20 -27 -33 -50 -31 -52 2 -3 210 -7 462 -10 l457 -6 58 -27 c116 -55 211
-175 223 -286 4 -27 -19 -275 -55 -597 -33 -302 -90 -827 -126 -1165 -36 -338
-72 -673 -80 -745 -8 -71 -26 -242 -40 -380 -14 -137 -30 -277 -35 -309 -20
-129 -106 -241 -228 -299 l-67 -32 -1805 0 -1805 0 -58 27 c-127 60 -215 181
-236 328 -10 67 -98 882 -136 1260 -9 80 -31 289 -49 465 -148 1396 -151 1419
-137 1479 17 78 81 170 151 217 96 66 119 69 551 70 211 1 407 4 436 7 l52 7
-35 48 -34 47 -408 -1 c-349 0 -416 -3 -472 -17z"/>
<path d="M1110 3955 c-316 -28 -453 -44 -463 -54 -4 -5 81 -11 190 -15 262 -9
572 -24 652 -32 l65 -7 -59 67 c-69 78 -26 73 -385 41z"/>
<path d="M3715 3909 l-60 -61 90 6 c50 3 239 15 420 26 182 11 353 23 380 27
l50 7 -45 7 c-49 9 -649 49 -727 49 -46 0 -51 -3 -108 -61z"/>
<path d="M2505 3858 c-21 -66 -45 -152 -41 -155 5 -5 86 142 86 157 0 14 -40
13 -45 -2z"/>
<path d="M2670 3860 c0 -10 89 -160 95 -160 2 0 -7 35 -21 78 -13 42 -24 80
-24 85 0 11 -50 9 -50 -3z"/>
<path d="M2065 3493 c-4 -32 -9 -66 -11 -75 -9 -31 12 -20 28 15 9 18 28 47
43 65 22 26 34 32 66 32 l39 0 0 -208 c0 -205 0 -209 -23 -230 -13 -12 -32
-22 -42 -22 -10 0 -15 -3 -12 -7 11 -11 227 -13 227 -3 0 6 -8 10 -18 10 -10
0 -28 11 -40 23 -22 23 -22 29 -20 233 l3 209 35 -2 c27 -2 44 -13 73 -44 20
-23 37 -47 37 -54 0 -7 7 -19 16 -26 14 -12 15 -7 9 46 -12 104 9 95 -210 95
l-194 0 -6 -57z"/>
<path d="M2501 3535 c24 -13 27 -21 32 -97 4 -46 7 -138 7 -206 0 -118 -1
-124 -25 -148 -14 -14 -25 -27 -25 -29 0 -10 159 -5 165 5 3 6 0 10 -8 10 -8
0 -21 8 -30 18 -14 15 -17 40 -17 119 0 95 1 102 26 127 33 32 88 36 104 7 5
-11 10 -72 10 -135 0 -105 -2 -117 -20 -128 -11 -7 -20 -15 -20 -18 0 -8 148
-5 156 3 4 4 -3 7 -15 7 -32 0 -41 36 -41 160 0 135 -11 155 -88 155 -37 0
-59 -6 -81 -23 l-31 -23 0 106 0 105 -62 0 c-60 -1 -62 -1 -37 -15z"/>
<path d="M330 3524 c-1 -29 107 -1047 165 -1554 170 -1494 143 -1308 200
-1392 39 -57 110 -128 128 -128 2 0 -4 35 -14 78 -21 91 -74 451 -159 1077
-136 1007 -232 1646 -271 1798 -19 75 -48 146 -49 121z"/>
<path d="M4856 3482 c-8 -13 -131 -807 -201 -1302 -185 -1299 -240 -1658 -261
-1714 -3 -9 -2 -16 3 -16 15 0 138 132 157 168 31 61 33 75 206 1620 46 402
106 1000 116 1143 5 64 3 98 -4 103 -6 3 -13 3 -16 -2z"/>
<path d="M2976 3380 c-62 -19 -106 -85 -106 -160 0 -110 89 -186 195 -166 34
7 95 57 95 79 0 6 -16 -4 -35 -23 -29 -28 -44 -35 -76 -35 -33 0 -46 6 -69 32
-27 30 -48 102 -35 123 4 6 50 10 112 10 l106 0 -6 35 c-14 85 -93 131 -181
105z m88 -29 c10 -11 20 -38 23 -60 l6 -41 -71 0 c-39 0 -73 4 -76 9 -8 12 11
71 30 92 22 25 66 24 88 0z"/>
<path d="M1311 3043 l-95 -4 32 -19 32 -20 0 -199 c0 -168 -2 -202 -16 -215
-8 -9 -22 -16 -29 -16 -8 0 -17 -4 -20 -10 -4 -6 33 -10 104 -10 62 0 111 4
111 9 0 5 -12 11 -27 13 -39 4 -49 37 -45 141 l3 87 29 0 c31 0 90 -43 90 -65
0 -8 5 -17 10 -20 6 -4 10 28 10 90 0 62 -4 94 -10 90 -5 -3 -10 -14 -10 -24
0 -30 -36 -54 -83 -55 l-42 -1 0 105 0 105 55 3 c69 3 119 -20 142 -66 26 -53
29 -51 26 18 l-3 64 -85 1 c-47 0 -128 -1 -179 -2z"/>
<path d="M2417 2893 c-12 -12 -30 -16 -61 -14 -110 6 -187 -104 -126 -182 11
-14 20 -28 20 -31 0 -3 -9 -15 -20 -26 -26 -26 -25 -62 1 -86 16 -14 43 -20
110 -25 98 -7 119 -18 119 -61 0 -88 -150 -117 -210 -40 -21 25 -21 35 -4 76
7 19 5 18 -24 -3 -30 -21 -31 -24 -19 -53 20 -49 56 -69 128 -75 49 -3 72 0
99 14 41 21 80 76 80 112 0 62 -53 91 -170 91 -77 0 -95 9 -85 40 6 20 11 21
54 15 93 -13 166 41 166 122 0 32 -6 48 -29 71 l-28 30 22 12 c12 6 31 10 41
7 12 -3 19 0 19 9 0 20 -62 18 -83 -3z m-34 -41 c41 -45 28 -176 -18 -188 -61
-15 -88 20 -82 108 5 86 57 127 100 80z"/>
<path d="M1745 2859 l-35 -31 0 26 c0 25 -2 26 -54 26 -55 0 -86 -16 -44 -22
20 -3 24 -11 30 -58 11 -95 9 -195 -4 -212 -7 -8 -22 -20 -33 -26 -16 -9 2
-11 80 -12 l100 0 -35 18 -35 17 -3 104 c-3 110 6 138 48 161 17 9 22 7 29
-13 12 -30 36 -40 62 -27 24 13 24 21 -2 54 -27 35 -60 33 -104 -5z"/>
<path d="M1938 2870 c-59 -32 -60 -90 -2 -90 21 0 24 5 24 40 0 33 4 42 24 50
54 20 86 -12 86 -90 0 -42 5 -38 -107 -69 -76 -21 -106 -89 -58 -136 28 -29
84 -33 129 -10 26 14 31 14 46 0 22 -20 86 -20 94 1 8 21 9 21 -16 20 -22 -1
-23 2 -25 109 -4 140 -7 151 -46 175 -41 25 -101 25 -149 0z m130 -206 c-5
-63 -23 -84 -70 -84 -46 0 -64 58 -30 100 14 18 54 34 96 39 5 1 6 -24 4 -55z"/>
<path d="M2695 2878 c-11 -6 -30 -20 -42 -31 l-23 -20 0 26 c0 24 -4 27 -32
26 -38 -2 -101 -16 -77 -18 39 -3 49 -33 49 -152 0 -119 -3 -129 -35 -147 -16
-9 -1 -11 75 -12 l95 0 -32 20 c-24 14 -33 27 -34 47 -3 174 -1 194 22 219 27
29 49 31 49 5 0 -22 30 -35 60 -26 26 8 25 21 -5 50 -27 27 -40 30 -70 13z"/>
<path d="M2863 2871 c-61 -28 -74 -91 -18 -91 25 0 38 21 29 45 -10 24 15 45
52 45 42 0 56 -24 52 -87 l-3 -47 -50 -11 c-98 -22 -135 -57 -126 -120 7 -53
103 -75 154 -35 l26 21 11 -21 c13 -25 81 -28 101 -4 11 13 11 15 -2 14 -38
-6 -39 -2 -39 105 0 113 -14 166 -48 184 -40 21 -95 22 -139 2z m117 -203 c0
-63 -19 -88 -67 -88 -27 0 -35 5 -44 27 -15 39 5 78 49 97 58 24 62 22 62 -36z"/>
<path d="M3296 2880 c-16 -5 -39 -19 -52 -31 l-24 -22 0 26 c0 26 -2 27 -55
27 -30 0 -55 -4 -55 -10 0 -5 4 -10 9 -10 5 0 17 -7 25 -16 13 -12 16 -40 16
-135 l0 -119 -32 -20 -33 -20 95 0 c85 1 93 2 71 14 -34 19 -39 37 -40 142 -1
88 0 93 28 123 35 37 73 41 95 9 12 -17 16 -49 16 -134 0 -110 -1 -113 -26
-133 l-27 -21 89 0 c80 1 87 2 65 14 -35 19 -40 37 -40 159 -1 60 -5 117 -11
127 -5 10 -24 23 -41 29 -36 12 -34 12 -73 1z"/>
<path d="M3623 2880 c-79 -18 -123 -75 -123 -160 0 -106 59 -170 156 -170 45
0 59 5 89 31 43 38 47 61 4 25 -58 -49 -117 -44 -156 14 -19 26 -23 47 -23
104 0 107 37 155 111 144 20 -2 24 -8 22 -32 -3 -41 14 -68 40 -64 18 2 22 10
22 37 0 55 -66 88 -142 71z"/>
<path d="M3917 2875 c-73 -25 -107 -77 -107 -162 0 -61 33 -119 80 -144 46
-25 116 -24 157 1 31 19 59 57 50 67 -3 2 -10 -5 -16 -16 -15 -26 -62 -51 -98
-51 -56 0 -103 59 -103 130 l0 30 110 0 110 0 0 28 c0 33 -31 86 -62 105 -35
22 -79 27 -121 12z m82 -24 c21 -21 38 -87 26 -99 -6 -6 -136 -4 -143 3 -2 2
2 22 9 45 20 66 70 89 108 51z"/>
<path d="M2557 2484 c-4 -4 6 -13 22 -20 l28 -12 6 -208 5 -209 -31 -27 -31
-28 92 0 c95 0 113 8 62 27 l-30 11 -2 234 -3 233 -55 3 c-31 2 -59 0 -63 -4z"/>
<path d="M1865 2470 l-190 -5 -7 -65 c-10 -86 -7 -92 24 -39 34 57 65 85 105
94 l32 6 3 -133 c2 -73 1 -171 -2 -218 -5 -84 -5 -85 -37 -100 -18 -8 -33 -18
-33 -22 0 -5 50 -8 110 -8 67 0 110 4 110 10 0 6 -6 10 -14 10 -8 0 -23 8 -34
18 -19 16 -20 33 -25 230 l-5 212 26 0 c53 0 73 -13 107 -66 19 -30 38 -54 42
-54 5 0 7 21 5 48 -4 61 -11 93 -20 90 -4 -1 -92 -5 -197 -8z"/>
<path d="M2119 2297 c-26 -17 -34 -30 -34 -52 0 -27 3 -30 30 -30 28 0 30 3
31 35 0 45 38 71 77 53 20 -9 27 -22 32 -57 4 -25 5 -52 2 -60 -3 -7 -34 -21
-69 -30 -70 -20 -89 -31 -106 -63 -18 -34 -14 -62 13 -88 30 -31 86 -33 131
-6 30 18 31 18 42 0 20 -31 112 -18 112 16 0 4 -7 1 -16 -6 -32 -26 -44 13
-44 139 0 112 0 114 -29 143 -25 25 -37 29 -84 29 -40 0 -63 -6 -88 -23z m131
-199 c0 -58 -19 -88 -56 -88 -30 0 -54 25 -54 58 0 34 8 45 45 65 54 29 65 23
65 -35z"/>
<path d="M2390 2309 c0 -4 9 -13 21 -20 18 -13 22 -27 26 -121 7 -121 1 -154
-27 -163 -43 -14 -16 -25 60 -25 47 0 80 4 80 10 0 6 -7 10 -15 10 -27 0 -35
39 -35 173 l0 135 -55 4 c-30 1 -55 0 -55 -3z"/>
<path d="M2830 2298 c-57 -30 -80 -74 -80 -154 0 -47 5 -69 23 -95 65 -97 217
-88 267 16 41 85 14 192 -59 233 -49 28 -95 28 -151 0z m129 -19 c25 -27 36
-92 28 -167 -9 -87 -48 -124 -112 -108 -32 8 -55 72 -55 151 0 70 12 113 37
133 27 19 80 15 102 -9z"/>
<path d="M3260 2313 c-8 -3 -27 -17 -42 -31 l-28 -26 0 27 c0 26 -2 27 -55 27
-30 0 -55 -4 -55 -10 0 -5 9 -10 19 -10 27 0 31 -18 31 -140 0 -125 -3 -137
-39 -153 -25 -11 -24 -12 21 -15 26 -2 71 -2 100 0 51 3 52 4 25 16 -37 16
-47 47 -47 147 0 79 1 84 31 116 l31 33 20 -27 c23 -32 53 -35 68 -7 8 15 6
24 -10 40 -20 20 -41 24 -70 13z"/>
<path d="M3420 2070 c0 -5 7 -10 15 -10 11 0 15 -11 15 -40 0 -22 5 -40 10
-40 6 0 10 18 10 40 0 29 4 40 15 40 8 0 15 5 15 10 0 6 -18 10 -40 10 -22 0
-40 -4 -40 -10z"/>
<path d="M3600 2053 c-6 -15 -13 -35 -16 -43 -4 -11 -9 -9 -19 10 -9 16 -14
19 -15 9 0 -8 6 -24 14 -34 13 -18 15 -17 32 16 l18 34 7 -35 c6 -34 6 -33 8
12 1 55 -15 72 -29 31z"/>
<path d="M3520 2031 c0 -22 5 -43 10 -46 6 -3 10 4 10 17 0 13 3 33 6 46 5 16
2 22 -10 22 -12 0 -16 -10 -16 -39z"/>
<path d="M2275 1384 c-22 -2 -98 -9 -170 -15 -215 -18 -401 -57 -379 -79 31
-31 132 -35 889 -35 757 0 858 4 889 35 20 20 -96 47 -324 75 -99 13 -232 18
-500 20 -201 2 -383 1 -405 -1z"/>
<path d="M998 859 c-25 -14 -24 -75 1 -89 26 -13 68 -13 77 2 5 8 0 9 -16 5
-32 -8 -60 9 -60 37 0 32 24 50 56 42 17 -5 23 -3 19 4 -8 13 -55 13 -77 -1z"/>
<path d="M1100 831 c0 -58 49 -94 78 -58 15 18 26 97 13 97 -5 0 -11 -19 -13
-42 -3 -38 -6 -43 -28 -43 -22 0 -25 5 -28 43 -4 53 -22 56 -22 3z"/>
<path d="M1231 818 c1 -29 4 -43 6 -30 6 29 17 28 42 -5 15 -21 20 -24 21 -11
0 9 -4 20 -10 23 -6 4 -5 13 2 24 17 28 3 51 -32 51 -30 0 -30 0 -29 -52z m53
33 c9 -15 -23 -36 -36 -23 -5 5 -7 15 -4 21 9 13 33 14 40 2z"/>
<path d="M1350 828 c-23 -51 -27 -83 -6 -55 16 21 66 23 66 2 0 -8 5 -15 10
-15 6 0 10 6 10 13 -1 22 -39 97 -50 97 -6 0 -20 -19 -30 -42z m40 -9 c0 -10
-7 -19 -15 -19 -16 0 -19 9 -9 34 8 20 24 11 24 -15z"/>
<path d="M1448 863 c19 -4 22 -11 22 -54 0 -27 5 -49 10 -49 6 0 10 20 10 45
0 31 5 47 18 54 13 8 5 10 -33 9 -27 0 -40 -3 -27 -5z"/>
<path d="M1550 815 l0 -55 36 0 c21 0 33 4 29 10 -3 6 -15 10 -26 10 -27 0
-24 28 4 33 l22 4 -22 2 c-35 2 -31 39 5 44 22 3 20 4 -10 6 l-38 1 0 -55z"/>
<path d="M1650 815 c0 -53 1 -55 28 -55 60 0 94 57 56 94 -8 9 -31 16 -50 16
l-34 0 0 -55z m68 33 c20 -20 14 -58 -10 -67 -32 -12 -38 -6 -38 40 0 31 4 39
18 39 10 0 23 -5 30 -12z"/>
<path d="M1880 815 c0 -30 5 -55 10 -55 6 0 10 9 10 19 0 12 8 21 21 23 55 8
50 68 -6 68 l-35 0 0 -55z m58 22 c2 -12 -3 -17 -17 -17 -15 0 -21 6 -21 21 0
25 33 22 38 -4z"/>
<path d="M1990 815 l0 -55 35 0 c19 0 35 5 35 10 0 6 -11 10 -25 10 -16 0 -25
6 -25 15 0 9 10 15 26 15 14 0 23 4 19 9 -3 6 -14 8 -25 6 -14 -3 -20 2 -20
15 0 13 9 20 28 23 22 3 20 4 -10 6 l-38 1 0 -55z"/>
<path d="M2090 816 c0 -31 5 -56 10 -56 6 0 10 9 10 20 0 11 7 20 15 20 8 0
19 -9 25 -20 6 -11 16 -20 22 -20 6 0 3 11 -7 26 -13 20 -14 28 -5 34 7 4 10
16 8 26 -2 14 -13 20 -41 22 l-37 3 0 -55z m55 24 c0 -8 -8 -16 -17 -18 -13
-2 -18 3 -18 18 0 15 5 20 18 18 9 -2 17 -10 17 -18z"/>
<path d="M2203 853 c-4 -11 3 -24 22 -38 30 -25 26 -50 -6 -42 -11 3 -19 1
-19 -5 0 -5 15 -8 33 -6 43 4 51 42 13 60 -34 15 -35 42 -1 36 14 -3 25 -1 25
3 0 17 -60 10 -67 -8z"/>
<path d="M2300 851 c-15 -29 -12 -56 8 -74 21 -19 45 -21 73 -7 22 12 27 68 7
88 -20 20 -76 15 -88 -7z m66 1 c21 -14 23 -41 5 -63 -15 -18 -21 -20 -39 -10
-24 13 -29 50 -10 69 14 14 28 15 44 4z"/>
<path d="M2435 858 c-2 -7 -3 -22 -1 -33 3 -11 5 -31 7 -45 1 -15 4 -6 8 20
l6 45 30 -42 c17 -23 35 -41 40 -39 11 3 15 72 6 96 -3 8 -8 -5 -11 -29 l-5
-44 -25 38 c-27 42 -47 54 -55 33z"/>
<path d="M2586 837 c-23 -56 -28 -77 -18 -77 6 0 12 7 16 15 7 20 35 19 58 -2
10 -9 18 -11 18 -6 0 19 -41 103 -50 103 -6 0 -16 -15 -24 -33z m38 -13 c9
-23 8 -24 -13 -24 -14 0 -18 5 -14 20 6 24 19 26 27 4z"/>
<path d="M2680 815 l0 -55 41 0 c25 0 38 4 34 10 -4 6 -16 10 -28 8 -20 -3
-22 2 -25 45 -4 65 -22 59 -22 -8z"/>
<path d="M2780 815 c0 -30 5 -55 10 -55 6 0 10 25 10 55 0 30 -4 55 -10 55 -5
0 -10 -25 -10 -55z"/>
<path d="M2834 855 c-8 -19 3 -34 32 -45 41 -16 29 -35 -18 -31 -10 1 -18 -3
-18 -9 0 -7 13 -10 33 -8 26 2 33 8 35 29 2 21 -2 28 -22 33 -35 9 -35 40 -1
34 14 -3 25 -1 25 3 0 15 -60 10 -66 -6z"/>
<path d="M2940 815 l0 -55 38 1 c30 2 32 3 10 6 -20 3 -28 10 -28 24 0 14 7
19 28 20 l27 1 -30 7 c-17 3 -30 13 -30 21 0 8 13 18 30 21 29 6 29 7 -7 8
l-38 1 0 -55z"/>
<path d="M3040 815 c0 -54 0 -55 30 -55 31 0 70 30 70 53 0 30 -31 57 -66 57
l-34 0 0 -55z m64 32 c28 -20 18 -61 -16 -65 -27 -3 -28 -1 -28 37 0 44 12 51
44 28z"/>
<path d="M3271 813 c1 -32 4 -48 6 -35 2 12 10 22 18 22 7 0 23 8 36 19 20 16
21 21 10 35 -7 9 -26 16 -42 16 -29 0 -29 -1 -28 -57z m54 27 c0 -8 -10 -16
-22 -18 -22 -3 -32 16 -16 32 12 11 38 2 38 -14z"/>
<path d="M3370 815 l0 -55 35 0 c19 0 35 5 35 10 0 6 -11 10 -25 10 -34 0 -32
28 3 33 l27 4 -27 2 c-21 1 -28 6 -28 20 0 14 8 21 28 24 22 3 20 4 -10 6
l-38 1 0 -55z"/>
<path d="M3481 813 c1 -32 4 -46 6 -30 5 34 18 34 39 2 9 -14 21 -25 26 -25 6
0 4 10 -4 23 -11 16 -12 27 -5 38 16 26 1 49 -33 49 l-30 0 1 -57z m57 30 c5
-17 -26 -29 -40 -15 -6 6 -7 15 -3 22 9 14 37 9 43 -7z"/>
<path d="M3590 815 c0 -30 5 -55 10 -55 6 0 10 11 10 25 0 18 5 25 20 25 11 0
20 5 20 10 0 6 -9 10 -20 10 -30 0 -24 28 8 33 22 3 20 4 -10 6 l-38 1 0 -55z"/>
<path d="M3687 863 c-4 -3 -7 -28 -7 -55 l0 -48 40 0 c22 0 40 5 40 10 0 6
-13 10 -30 10 -20 0 -30 5 -30 15 0 9 10 15 26 15 14 0 23 4 19 10 -3 6 -15
10 -26 10 -33 0 -22 28 14 33 l32 4 -36 1 c-20 1 -39 -1 -42 -5z"/>
<path d="M3792 858 c-17 -17 -15 -64 4 -82 17 -17 74 -22 74 -7 0 6 -15 11
-32 13 -26 2 -34 8 -36 26 -5 31 17 55 45 49 13 -2 23 0 23 4 0 13 -64 11 -78
-3z"/>
<path d="M3908 860 c18 -8 22 -18 24 -57 l1 -48 6 50 c3 28 11 50 18 50 6 0
15 3 19 8 4 4 -15 7 -42 6 -39 0 -45 -2 -26 -9z"/>
<path d="M4000 815 l0 -55 41 0 c25 0 38 4 34 10 -4 6 -10 8 -15 5 -13 -8 -40
6 -40 20 0 8 12 16 28 18 l27 4 -27 2 c-21 1 -28 6 -28 20 0 15 8 21 33 24 28
3 26 4 -10 5 l-43 2 0 -55z"/>
<path d="M4110 815 c0 -54 0 -55 30 -55 32 0 70 30 70 56 0 36 -20 54 -60 54
l-40 0 0 -55z m64 32 c24 -17 17 -48 -14 -64 -29 -14 -43 0 -36 39 3 13 5 26
5 31 1 11 25 8 45 -6z"/>
<path d="M1775 770 c4 -6 11 -8 16 -5 14 9 11 15 -7 15 -8 0 -12 -5 -9 -10z"/>
<path d="M3155 770 c3 -5 10 -10 16 -10 5 0 9 5 9 10 0 6 -7 10 -16 10 -8 0
-12 -4 -9 -10z"/>
<path d="M4220 770 c0 -5 5 -10 10 -10 6 0 10 5 10 10 0 6 -4 10 -10 10 -5 0
-10 -4 -10 -10z"/>
<path d="M2480 563 c-142 -5 -355 -24 -490 -44 -248 -37 -707 -135 -750 -159
-9 -6 551 -9 1375 -9 1568 0 1462 -7 1110 79 -321 79 -556 114 -872 130 -109
5 -220 9 -248 8 -27 -1 -84 -3 -125 -5z"/>
</g>
</svg>
